<?xml version="1.0" encoding="UTF-8"?><svg id="uuid-ba2452e9-43b6-4d69-b5f2-1d1a79068539" xmlns="http://www.w3.org/2000/svg" viewBox="0 0 178.77 178.6"><path d="M117.53,70.8c.4,0,.5.2.3.5l-6.8,11.9-21.2,37.3c0,.2-.2.2-.4.2s-.3,0-.4-.2l-28.1-49c-.2-.3,0-.4.2-.4h1.8l54.7-.2h0l-.1-.1ZM66.43,5.6c-.2,0-.3,0-.4.2l-23.3,40.8c-.2.4-.6.6-1.1.6h-23.3c-.5,0-.6.2-.3.6l47.2,82.6c.2.3.1.5-.3.5h-22.7c-.7,0-1.3.4-1.6,1.1l-10.7,18.8c-.4.6-.2,1,.6,1h46.5c.4,0,.7.2.8.6l11.4,20c.4.7.7.7,1.1,0l40.7-71.2,6.4-11.2c0-.2.2-.2.4-.2s.3,0,.4.2l11.6,20.6c.2.3.5.5.9.5l22.5-.2c.1,0,.2,0,.3-.2v-.3l-23.6-41.4c-.2-.3-.2-.6,0-.9l2.4-4.1,9.1-16.1c.2-.3,0-.5-.3-.5h-94.3c-.5,0-.6-.2-.3-.6l11.7-20.4c.2-.3.2-.6,0-.9l-11.1-19.5c0-.2-.2-.3-.4-.3h0l-.3-.1ZM94.33,2.4c3.2,5.6,6.4,11.2,9.5,16.9.3.5.7.7,1.3.7h45.1c1.4,0,2.6.9,3.6,2.7l11.8,20.9c1.5,2.7,2,3.9.2,6.8-2.1,3.5-4.2,7-6.2,10.6l-3,5.4c-.9,1.6-1.8,2.3-.3,4.2l21.6,37.7c1.4,2.4.9,4-.3,6.3-3.6,6.4-7.2,12.7-10.9,19-1.3,2.2-2.9,3-5.5,3-6.3-.1-12.6,0-18.9.1-.3,0-.5.2-.7.4-7.3,12.9-14.6,25.7-22,38.5-1.4,2.4-3.1,3-5.9,3h-24.5c-1.7,0-2.9-.7-3.8-2.2l-10.9-18.9c-.1-.3-.4-.4-.7-.4h-41.6c-2.3.2-4.5,0-6.5-.7l-13-22.5c-.8-1.5-.8-2.9,0-4.4l9.8-17.2c.3-.5.3-1.1,0-1.6-5.1-8.9-10.2-17.7-15.2-26.6l-6.4-11.3c-1.3-2.5-1.4-4,.8-7.8,3.8-6.6,7.5-13.2,11.3-19.8,1.1-1.9,2.5-2.7,4.7-2.7h21.1c.4,0,.7-.2.9-.5L62.53,2.2c.8-1.3,1.9-2,3.4-2h12.9l8.3-.2c2.8,0,5.9.3,7.3,2.8l-.1-.4Z" style="fill:#615ced; fill-rule:evenodd;"/></svg>